<svg width="50" height="50" viewBox="0 0 50 50" fill="none" xmlns="http://www.w3.org/2000/svg">
<rect x="11.5" y="12.2693" width="27" height="27" rx="2.5" stroke="black" stroke-width="3"/>
<path d="M16.1538 10.7693V5.61476e-05M34.6154 10.7693V5.61476e-05M30 10.7693V5.61476e-05M20.7692 10.7693V5.61476e-05M25.3846 10.7693V5.61476e-05" stroke="black" stroke-width="3"/>
<path d="M16.1538 50V39.2308M34.6154 50V39.2308M30 50V39.2308M20.7692 50V39.2308M25.3846 50V39.2308" stroke="black" stroke-width="3"/>
<path d="M39.2308 15.3846H50M39.2308 33.8462H50M39.2308 29.2308H50M39.2308 20H50M39.2308 24.6154H50" stroke="black" stroke-width="3"/>
<path d="M0 15.3846H10.7692M0 33.8462H10.7692M0 29.2308H10.7692M0 20H10.7692M0 24.6154H10.7692" stroke="black" stroke-width="3"/>
</svg>
