<svg width="43" height="59" viewBox="0 0 43 59" fill="none" xmlns="http://www.w3.org/2000/svg">
<rect x="1.5" y="1.5" width="39.0625" height="55.2972" rx="1.5" stroke="black" stroke-width="3"/>
<mask id="path-2-inside-1_15_138" fill="white">
<path fill-rule="evenodd" clip-rule="evenodd" d="M21.4137 32.8852C28.1716 32.8852 33.65 27.4068 33.65 20.6488C33.65 13.8909 28.1716 8.41248 21.4137 8.41248C14.6557 8.41248 9.17731 13.8909 9.17731 20.6488C9.17731 23.3258 10.0369 25.802 11.4952 27.8164L17.0028 25.895C18.7514 25.285 20.3184 27.1743 19.3956 28.78L17.4194 32.2185C18.6712 32.6506 20.015 32.8852 21.4137 32.8852Z"/>
</mask>
<path fill-rule="evenodd" clip-rule="evenodd" d="M21.4137 32.8852C28.1716 32.8852 33.65 27.4068 33.65 20.6488C33.65 13.8909 28.1716 8.41248 21.4137 8.41248C14.6557 8.41248 9.17731 13.8909 9.17731 20.6488C9.17731 23.3258 10.0369 25.802 11.4952 27.8164L17.0028 25.895C18.7514 25.285 20.3184 27.1743 19.3956 28.78L17.4194 32.2185C18.6712 32.6506 20.015 32.8852 21.4137 32.8852Z" fill="black"/>
<path d="M11.4952 27.8164L9.87513 28.9892L10.7482 30.1952L12.154 29.7048L11.4952 27.8164ZM17.0028 25.895L17.6616 27.7834L17.6616 27.7834L17.0028 25.895ZM19.3956 28.78L21.1296 29.7766L21.1296 29.7766L19.3956 28.78ZM17.4194 32.2185L15.6854 31.2219L14.4798 33.3196L16.7669 34.109L17.4194 32.2185ZM31.65 20.6488C31.65 26.3022 27.0671 30.8852 21.4137 30.8852V34.8852C29.2762 34.8852 35.65 28.5114 35.65 20.6488H31.65ZM21.4137 10.4125C27.0671 10.4125 31.65 14.9955 31.65 20.6488H35.65C35.65 12.7863 29.2762 6.41248 21.4137 6.41248V10.4125ZM11.1773 20.6488C11.1773 14.9955 15.7603 10.4125 21.4137 10.4125V6.41248C13.5511 6.41248 7.17731 12.7863 7.17731 20.6488H11.1773ZM13.1153 26.6437C11.8957 24.959 11.1773 22.8908 11.1773 20.6488H7.17731C7.17731 23.7609 8.17816 26.645 9.87513 28.9892L13.1153 26.6437ZM16.344 24.0067L10.8364 25.928L12.154 29.7048L17.6616 27.7834L16.344 24.0067ZM21.1296 29.7766C22.9753 26.5652 19.8412 22.7866 16.344 24.0067L17.6616 27.7834C17.6729 27.7795 17.6795 27.7781 17.6816 27.7778C17.6838 27.7774 17.683 27.7777 17.6799 27.7777C17.6768 27.7778 17.6727 27.7776 17.6681 27.7769C17.6635 27.7762 17.6594 27.7753 17.656 27.7742C17.6491 27.7721 17.6471 27.7703 17.6493 27.7718C17.6518 27.7735 17.6565 27.7773 17.6616 27.7834C17.6666 27.7896 17.6695 27.7949 17.6707 27.7976C17.6718 27.8 17.6704 27.7978 17.6696 27.7906C17.6692 27.7871 17.669 27.7828 17.6692 27.7782C17.6694 27.7736 17.6699 27.7695 17.6706 27.7665C17.6712 27.7634 17.6716 27.7627 17.6709 27.7648C17.6701 27.7668 17.6675 27.773 17.6616 27.7834L21.1296 29.7766ZM19.1534 33.2151L21.1296 29.7766L17.6616 27.7834L15.6854 31.2219L19.1534 33.2151ZM21.4137 30.8852C20.2401 30.8852 19.1167 30.6885 18.072 30.3279L16.7669 34.109C18.2258 34.6126 19.79 34.8852 21.4137 34.8852V30.8852Z" fill="black" mask="url(#path-2-inside-1_15_138)"/>
<circle cx="7" cy="8" r="2.5" fill="black" stroke="black"/>
<circle cx="34" cy="8" r="2.5" fill="black" stroke="black"/>
<circle cx="34" cy="48" r="2.5" fill="black" stroke="black"/>
<circle cx="7" cy="48" r="2.5" fill="black" stroke="black"/>
</svg>
