<svg width="80" height="42" viewBox="0 0 80 42" fill="none" xmlns="http://www.w3.org/2000/svg">
<path d="M3.61696 11.6902L2.23509 10.0492C2.08326 9.86894 2 9.6408 2 9.4051V3C2 2.44772 2.44772 2 3 2H40H77C77.5523 2 78 2.44772 78 3V9.48736C78 9.70633 77.9281 9.91923 77.7954 10.0934L79.3863 11.3055L77.7954 10.0934L76.0323 12.4075C72.2294 17.3988 72.9434 24.483 77.6657 28.6151C77.8782 28.8009 78 29.0694 78 29.3517V39C78 39.5523 77.5523 40 77 40H71.6627C71.3179 40 70.9975 39.8224 70.8148 39.53L69.24 37.0104C67.2817 33.8771 62.7183 33.8771 60.76 37.0104L59.1853 39.53C59.0025 39.8224 58.682 40 58.3373 40H56.6627C56.318 40 55.9975 39.8224 55.8147 39.53L54.24 37.0104C52.2817 33.8771 47.7183 33.8771 45.76 37.0104L44.1853 39.53C44.0025 39.8224 43.682 40 43.3373 40H40H36.6627C36.318 40 35.9975 39.8224 35.8147 39.53L34.24 37.0104C32.2817 33.8771 27.7183 33.8771 25.76 37.0104L24.1853 39.53C24.0025 39.8224 23.682 40 23.3373 40H21.6627C21.318 40 20.9975 39.8224 20.8147 39.53L19.24 37.0104C17.2817 33.8771 12.7183 33.8771 10.76 37.0104L9.18526 39.53C9.00252 39.8224 8.68205 40 8.33726 40H3C2.44772 40 2 39.5523 2 39V29.2426C2 28.9774 2.10536 28.7231 2.29289 28.5355L2.92331 27.9051C7.32871 23.4997 7.63004 16.4557 3.61696 11.6902Z" stroke="black" stroke-width="4"/>
<path d="M16 9H25V23H16L16 9Z" fill="black" stroke="black" stroke-width="2"/>
<path d="M35.5 9H44.5V23H35.5L35.5 9Z" fill="black" stroke="black" stroke-width="2"/>
<path d="M55 9H64V23H55L55 9Z" fill="black" stroke="black" stroke-width="2"/>
</svg>
